# xmcd
#
# Track frame offsets: 
#        150
#        14615
#        32401
#        52404
#        73496
#        86787
#        106578
#        122481
#        140555
#        155932
#        176052
#        196163
#        215999
#        232471
#        244279
#
# Disc length: 3548 seconds
#
# Revision: 0
# Processed by: cddbd v1.5.2PL0 Copyright (c) Steve Scherf et al.
# Submitted via: ExactAudioCopyFreeDBPlugin 1.0
#
DISCID=f00dda0f
DTITLE=Secret Garden - Magic Grace-奇異恩典 CD2
DYEAR=1900
DGENRE=Pop
TTITLE0=ScrenadeToSpring-春天小夜曲
TTITLE1=Invitation-盛宴
TTITLE2=GatesOfDawn-黎明之扉
TTITLE3=FirstDayOfSpring-初春
TTITLE4=Atlantia-沉睡的大陸
TTITLE5=Evensong-晚禱
TTITLE6=SongFromASecretGarden-神秘園之歌
TTITLE7=Steps-步伐
TTITLE8=Fairhlale-童話
TTITLE9=Moongate-月亮之門
TTITLE10=Vocal-歌聲
TTITLE11=Appassionata-熱情
TTITLE12=Windancer-風之舞者
TTITLE13=Daughter Of Erin-大地的女儿
TTITLE14=SleepSong-睡眠曲
EXTD=
EXTT0=
EXTT1=
EXTT2=
EXTT3=
EXTT4=
EXTT5=
EXTT6=
EXTT7=
EXTT8=
EXTT9=
EXTT10=
EXTT11=
EXTT12=
EXTT13=
EXTT14=
PLAYORDER=
